# xmcd
#
# Track frame offsets: 
#        150
#        13482
#        26560
#        39723
#        51743
#        61094
#        76566
#        89382
#        102710
#        115976
#        130072
#        142994
#        157601
#        171115
#        183279
#        198012
#        211374
#        223702
#        239252
#        253822
#        265659
#        275787
#        285654
#        299412
#        313310
#
# Disc length: 4337 seconds
#
# Revision: 0
# Processed by: cddbd v1.5.1PL0 Copyright (c) Steve Scherf et al.
# Submitted via: ExactAudioCopy v0.95a5
#
DISCID=7810ef19
DTITLE=Red Foley - Tennessee Saturday Night
DYEAR=2003
DGENRE=Country
TTITLE0=Smoke on the Water
TTITLE1=There's a Blue Star Shining Bright
TTITLE2=Hang Your Head in Shame
TTITLE3=I'll Never Let You Worry My Mind
TTITLE4=Shame on You
TTITLE5=At Mail Call Today
TTITLE6=Harriet
TTITLE7=Have I Told You Lately That I Love You
TTITLE8=That's How Much I Love You
TTITLE9=New Jolie Blonde
TTITLE10=Freight Train Boogie
TTITLE11=Never Trust a Woman
TTITLE12=Blues in My Heart
TTITLE13=Tennessee Saturday Night
TTITLE14=Old Shep
TTITLE15=Candy Kisses
TTITLE16=Tennessee Border
TTITLE17=Tennessee Polka
TTITLE18=Sunday Down in Tennessee
TTITLE19=Tennessee Border No. 2
TTITLE20=When God Dips His Love in My Heart
TTITLE21=Don't Be Ashamed of Your Age
TTITLE22=Goodnight Irene
TTITLE23=I Gotta Have My Baby Back
TTITLE24=Careless Kisses
EXTD=
EXTT0=
EXTT1=
EXTT2=
EXTT3=
EXTT4=
EXTT5=
EXTT6=
EXTT7=
EXTT8=
EXTT9=
EXTT10=
EXTT11=
EXTT12=
EXTT13=
EXTT14=
EXTT15=
EXTT16=
EXTT17=
EXTT18=
EXTT19=
EXTT20=
EXTT21=
EXTT22=
EXTT23=
EXTT24=
PLAYORDER=
